<svg width="24" height="24" viewBox="0 0 52 52"><title>Deezer</title><circle cx="26" cy="26" r="26" fill="#A238FF"></circle><path fill-rule="evenodd" clip-rule="evenodd" d="M37.5159 16.1872C37.8305 14.364 38.2921 13.2175 38.8034 13.2153H38.8044C39.7579 13.2186 40.5308 17.1947 40.5308 22.1038C40.5308 27.0129 39.7568 30.9922 38.8023 30.9922C38.411 30.9922 38.0499 30.3165 37.7592 29.1843C37.2998 33.3291 36.3464 36.1784 35.2426 36.1784C34.3887 36.1784 33.6223 34.4668 33.1078 31.7675C32.7565 36.901 31.8723 40.5433 30.8388 40.5433C30.1902 40.5433 29.5989 39.1 29.1611 36.7499C28.6347 41.601 27.4186 45 26.0004 45C24.5822 45 23.3638 41.6021 22.8396 36.7499C22.405 39.1 21.8137 40.5433 21.1619 40.5433C20.1285 40.5433 19.2464 36.901 18.8929 31.7675C18.3784 34.4668 17.6141 36.1784 16.758 36.1784C15.6554 36.1784 14.7009 33.3301 14.2415 29.1843C13.9529 30.3198 13.5897 30.9922 13.1984 30.9922C12.2439 30.9922 11.4699 27.0129 11.4699 22.1038C11.4699 17.1947 12.2439 13.2153 13.1984 13.2153C13.7107 13.2153 14.1691 14.3651 14.4869 16.1872C14.996 13.0434 15.823 11 16.758 11C17.8682 11 18.8302 13.8898 19.2853 18.086C19.7307 15.032 20.4063 13.085 21.163 13.085C22.2234 13.085 23.1249 16.9143 23.4589 22.256C24.087 19.5173 24.9962 17.7991 26.0026 17.7991C27.0088 17.7991 27.918 19.5184 28.545 22.256C28.8801 16.9143 29.7805 13.085 30.841 13.085C31.5965 13.085 32.2711 15.032 32.7186 18.086C33.1727 13.8898 34.1347 11 35.2449 11C36.1767 11 37.0068 13.0445 37.5159 16.1872ZM9 21.2295C9 19.035 9.43888 17.2556 9.98044 17.2556C10.522 17.2556 10.9609 19.035 10.9609 21.2295C10.9609 23.4239 10.522 25.2035 9.98044 25.2035C9.43888 25.2035 9 23.4239 9 21.2295ZM41.0391 21.2295C41.0391 19.035 41.478 17.2556 42.0196 17.2556C42.561 17.2556 43 19.035 43 21.2295C43 23.4239 42.561 25.2035 42.0196 25.2035C41.478 25.2035 41.0391 23.4239 41.0391 21.2295Z" fill="#0F0D13"></path></svg>